<svg id="svg" xmlns="http://www.w3.org/2000/svg" xmlns:xlink="http://www.w3.org/1999/xlink" width="24" height="24" viewBox="0, 0, 400,400"><g id="svgg"><path id="path0" d="M156.403 39.080 C 142.358 47.643,150.337 74.758,169.557 83.786 L 174.969 86.328 174.993 90.625 C 175.087 107.808,179.129 131.911,183.266 139.955 C 184.261 141.889,184.156 142.201,181.595 144.916 C 180.093 146.510,178.201 149.096,177.392 150.665 L 175.921 153.516 173.755 148.438 C 159.894 115.949,138.695 89.078,113.672 72.280 C 105.897 67.061,90.165 58.690,89.572 59.456 C 89.440 59.626,88.266 62.430,86.962 65.687 L 84.591 71.609 91.622 75.062 C 129.339 93.587,159.770 135.905,173.052 188.300 C 181.389 221.192,165.770 296.087,144.869 323.438 C 122.452 352.771,88.518 358.197,77.701 334.178 C 75.543 329.385,75.494 328.952,75.000 310.156 C 74.380 286.599,73.215 282.761,63.616 272.656 C 57.475 266.190,53.984 247.044,56.961 236.150 C 58.951 228.866,71.774 218.433,89.912 209.341 C 99.301 204.634,100.000 203.966,100.000 199.695 C 100.000 194.314,99.611 194.189,81.510 193.713 C 53.353 192.973,50.799 190.346,50.014 161.328 C 49.496 142.175,48.907 139.920,42.583 132.921 C 38.953 128.903,38.297 126.823,37.596 117.121 C 36.666 104.256,34.001 99.959,20.628 89.759 C 12.804 83.791,10.831 75.087,15.821 68.546 C 19.659 63.513,22.130 62.868,36.805 63.065 L 49.782 63.240 50.281 58.458 C 50.556 55.829,50.781 52.850,50.781 51.839 L 50.781 50.000 35.967 50.000 C 9.792 50.000,-0.747 58.396,0.173 78.516 C 0.668 89.325,3.661 93.975,16.223 103.449 C 22.855 108.451,24.104 111.131,24.924 122.110 C 25.653 131.880,27.393 136.519,32.417 142.079 C 36.625 146.737,36.917 148.181,37.423 166.797 C 38.116 192.272,45.803 203.935,63.262 206.003 L 67.071 206.454 62.256 210.063 C 54.686 215.737,48.903 221.968,46.216 227.347 L 43.750 232.281 43.750 247.308 C 43.750 267.304,45.546 273.196,54.656 283.078 C 61.215 290.195,61.943 293.138,62.507 314.841 C 63.073 336.644,63.637 339.129,69.903 347.465 C 93.025 378.225,144.670 360.245,166.402 313.869 C 169.998 306.195,177.839 282.835,180.563 271.682 C 182.689 262.974,182.674 262.987,185.482 267.229 C 192.429 277.727,207.125 277.760,214.533 267.295 C 217.497 263.107,217.298 262.928,219.431 271.688 C 222.128 282.766,229.986 306.161,233.598 313.869 C 255.330 360.245,306.975 378.225,330.097 347.465 C 336.363 339.129,336.927 336.644,337.493 314.841 C 338.057 293.138,338.785 290.195,345.344 283.078 C 351.761 276.116,356.250 266.371,356.250 259.400 L 356.250 256.466 350.372 255.933 C 343.503 255.310,342.969 255.520,342.968 258.835 C 342.967 261.747,339.173 270.176,337.097 271.875 C 328.128 279.219,325.603 287.215,325.007 310.159 C 324.530 328.527,324.428 329.480,322.501 333.690 C 311.288 358.181,277.786 353.082,255.131 323.438 C 234.236 296.095,218.458 220.360,226.974 188.281 C 243.039 127.769,277.168 84.721,321.094 69.568 C 335.643 64.549,364.483 61.114,374.753 63.176 C 388.679 65.973,391.239 80.708,379.372 89.759 C 365.999 99.959,363.334 104.256,362.404 117.121 C 361.703 126.823,361.047 128.903,357.417 132.921 C 351.093 139.920,350.504 142.175,349.986 161.328 C 349.203 190.259,346.600 192.934,318.490 193.698 C 300.391 194.190,300.000 194.317,300.000 199.695 C 300.000 203.933,300.654 204.562,310.050 209.359 C 333.163 221.159,343.728 231.147,343.746 241.211 L 343.750 243.750 350.000 243.750 L 356.250 243.750 356.250 238.015 C 356.250 228.198,350.647 219.735,337.744 210.063 L 332.929 206.454 336.738 206.003 C 354.197 203.935,361.884 192.272,362.577 166.797 C 363.086 148.047,363.292 147.068,367.887 141.543 C 373.111 135.262,374.343 131.932,375.076 122.117 C 375.896 111.130,377.144 108.452,383.777 103.449 C 397.174 93.345,399.609 89.270,399.609 76.953 C 399.609 64.892,395.314 57.545,385.156 52.230 C 379.957 49.510,347.084 49.497,334.375 52.211 C 286.656 62.402,250.088 95.048,226.649 148.386 L 224.097 154.193 222.715 151.108 C 221.956 149.411,220.092 146.705,218.574 145.096 L 215.814 142.169 217.784 137.296 C 221.408 128.332,224.959 105.301,225.015 90.387 L 225.031 86.328 230.443 83.786 C 246.862 76.074,254.647 58.841,248.082 44.741 C 242.940 33.696,229.471 35.749,218.840 49.198 C 213.042 56.533,212.492 59.202,211.683 83.953 C 210.485 120.580,206.794 137.500,200.000 137.500 C 193.240 137.500,189.462 120.256,188.276 83.984 C 187.785 68.980,187.240 61.753,186.388 58.949 C 182.096 44.823,165.270 33.674,156.403 39.080 M62.508 56.097 C 62.032 58.544,61.458 61.501,61.234 62.666 C 60.882 64.493,61.131 64.855,63.030 65.286 C 64.242 65.561,67.102 66.249,69.384 66.816 C 72.515 67.593,73.609 67.621,73.840 66.931 C 74.009 66.427,74.738 63.906,75.460 61.328 C 76.183 58.750,76.919 56.257,77.095 55.789 C 77.285 55.284,74.940 54.383,71.325 53.573 C 67.975 52.823,64.816 52.083,64.304 51.928 C 63.724 51.753,63.049 53.319,62.508 56.097 M168.806 55.645 C 172.891 59.730,176.695 71.094,173.978 71.094 C 169.860 71.094,163.281 61.316,163.281 55.195 C 163.281 50.937,164.171 51.010,168.806 55.645 M235.132 62.159 C 231.804 69.034,224.519 73.539,225.421 68.164 C 226.606 61.103,229.455 56.102,233.991 53.115 L 236.328 51.576 236.568 55.136 C 236.733 57.576,236.281 59.786,235.132 62.159 M42.421 70.281 C 27.508 79.374,45.305 111.186,68.847 117.517 C 71.157 118.139,72.252 118.670,71.281 118.699 C 55.324 119.163,50.754 143.972,64.869 153.503 L 68.359 155.859 85.701 156.096 C 105.977 156.373,106.648 156.156,106.120 149.513 L 105.844 146.047 107.360 148.219 C 108.193 149.413,111.560 153.115,114.842 156.445 L 120.810 162.500 117.241 162.512 C 96.202 162.580,80.985 178.367,91.831 188.872 C 107.356 203.909,134.098 204.041,149.224 189.155 C 161.625 176.950,164.120 170.332,160.107 160.286 C 143.023 117.520,110.130 83.023,91.011 87.822 C 82.815 89.879,87.695 117.139,99.800 136.914 C 101.575 139.814,102.920 142.188,102.788 142.188 C 102.656 142.188,99.152 137.795,95.002 132.426 C 89.126 124.825,86.639 122.239,83.767 120.743 C 80.891 119.246,80.477 118.815,81.887 118.786 C 89.597 118.631,89.538 112.742,81.692 99.595 C 66.789 74.621,52.633 64.054,42.421 70.281 M343.804 70.355 C 334.374 74.633,312.500 104.196,312.500 112.663 C 312.500 116.224,314.672 118.740,317.773 118.772 C 319.730 118.792,319.608 118.953,316.406 120.579 C 313.745 121.930,311.088 124.664,305.469 131.837 C 296.292 143.551,295.922 143.913,300.083 137.109 C 312.221 117.263,317.170 89.875,308.989 87.822 C 289.481 82.926,252.247 123.072,238.476 163.850 C 235.401 172.956,247.154 189.951,261.371 196.957 C 282.797 207.515,321.290 190.386,310.158 175.248 C 304.681 167.801,293.377 162.546,282.759 162.512 L 279.190 162.500 285.158 156.445 C 288.440 153.115,291.807 149.413,292.640 148.219 L 294.156 146.047 293.880 149.513 C 293.364 156.001,294.085 156.250,313.371 156.250 C 331.897 156.250,334.935 155.463,339.497 149.483 C 348.494 137.686,341.982 119.085,328.719 118.699 C 327.748 118.670,328.843 118.139,331.153 117.517 C 342.620 114.433,354.266 104.771,359.466 94.025 C 367.682 77.048,358.763 63.568,343.804 70.355 M58.827 90.498 C 61.140 93.361,64.168 97.385,65.557 99.442 L 68.082 103.180 64.126 100.746 C 58.391 97.217,50.781 87.441,50.781 83.602 C 50.781 82.012,54.653 85.331,58.827 90.498 M347.231 88.349 C 344.966 92.820,338.619 99.523,334.422 101.879 L 331.770 103.368 335.896 97.399 C 344.319 85.216,351.877 79.181,347.231 88.349 M115.678 114.844 C 124.896 124.003,132.737 135.118,140.320 149.775 C 145.595 159.972,145.488 160.445,138.663 157.085 C 122.225 148.993,106.760 128.162,101.981 107.673 L 100.914 103.100 104.168 104.870 C 105.958 105.844,111.137 110.332,115.678 114.844 M298.016 107.685 C 293.236 128.178,277.506 149.310,261.262 157.063 C 254.465 160.307,254.396 159.984,259.697 149.775 C 271.074 127.860,291.851 103.125,298.880 103.125 C 298.990 103.125,298.601 105.177,298.016 107.685 M78.996 134.180 C 80.065 135.361,82.303 138.045,83.968 140.144 L 86.996 143.960 80.096 143.598 C 73.770 143.266,73.044 143.059,71.364 141.106 C 66.193 135.095,73.677 128.303,78.996 134.180 M329.040 133.324 C 333.907 137.729,329.118 143.115,319.904 143.598 L 313.004 143.960 316.032 140.144 C 322.860 131.539,325.524 130.142,329.040 133.324 M206.062 152.340 C 216.224 158.536,211.879 174.213,200.000 174.213 C 193.334 174.213,188.287 169.166,188.287 162.500 C 188.287 153.409,198.366 147.648,206.062 152.340 M142.965 176.569 C 137.741 186.331,120.995 189.639,107.817 183.512 L 102.744 181.154 104.647 179.718 C 108.821 176.569,116.772 175.332,134.207 175.118 C 143.592 175.003,143.786 175.035,142.965 176.569 M288.933 176.979 C 291.376 177.665,294.248 178.884,295.315 179.690 L 297.256 181.154 292.183 183.512 C 278.942 189.668,263.699 186.675,257.123 176.629 L 255.888 174.742 270.190 175.237 C 279.490 175.560,286.046 176.169,288.933 176.979 M202.944 190.041 C 203.853 191.009,205.482 193.734,206.562 196.096 C 214.756 214.002,212.743 249.527,202.944 259.959 C 198.828 264.340,193.908 258.443,190.072 244.531 C 184.891 225.740,191.502 188.281,200.000 188.281 C 200.710 188.281,202.034 189.073,202.944 190.041 M114.705 215.979 C 95.962 220.780,93.169 222.742,89.367 233.771 C 83.872 249.714,90.169 262.500,103.516 262.500 C 112.643 262.500,114.956 260.163,127.938 237.822 C 143.193 211.569,141.679 209.070,114.705 215.979 M264.063 214.063 C 260.822 217.303,261.763 220.098,272.062 237.822 C 285.044 260.163,287.357 262.500,296.484 262.500 C 309.812 262.500,316.078 249.698,310.590 233.680 C 306.734 222.422,304.526 220.880,285.383 216.073 C 269.412 212.062,266.352 211.773,264.063 214.063 M145.913 219.727 C 144.435 220.871,127.345 246.998,125.915 250.297 C 122.086 259.137,128.399 275.840,137.054 279.771 C 149.105 285.245,162.465 276.527,162.600 263.102 C 162.642 258.952,157.602 227.573,156.134 222.846 C 154.930 218.970,149.162 217.210,145.913 219.727 M245.392 220.233 C 243.633 221.992,243.778 221.356,239.925 244.237 C 236.027 267.391,236.859 272.657,245.346 278.539 C 258.119 287.391,275.229 275.263,275.139 257.422 C 275.106 251.073,274.697 250.201,264.364 234.454 C 253.386 217.725,250.250 215.375,245.392 220.233 M111.814 238.732 C 106.003 248.733,104.724 250.113,102.539 248.745 C 99.685 246.957,101.128 236.424,104.666 233.222 C 105.890 232.115,116.328 228.792,117.003 229.295 C 117.116 229.379,114.781 233.626,111.814 238.732 M295.333 233.221 C 300.173 237.602,300.359 250.004,295.570 249.082 C 294.516 248.879,282.813 230.746,282.813 229.317 C 282.813 228.584,294.097 232.103,295.333 233.221 M147.880 251.758 C 150.002 264.350,149.342 267.969,144.922 267.969 C 138.272 267.969,136.645 257.695,141.992 249.475 C 146.620 242.361,146.275 242.227,147.880 251.758 M258.008 249.475 C 263.355 257.695,261.728 267.969,255.078 267.969 C 250.518 267.969,249.874 264.786,251.957 252.539 C 253.727 242.135,253.356 242.324,258.008 249.475 M110.933 265.430 C 103.403 269.801,93.801 279.637,90.548 286.312 C 86.634 294.343,86.471 311.127,90.256 316.512 C 98.298 327.954,114.199 327.955,122.244 316.514 L 124.609 313.150 124.837 289.420 C 125.058 266.414,125.016 265.641,123.470 264.095 C 120.947 261.572,116.822 262.011,110.933 265.430 M276.530 264.095 C 274.984 265.641,274.942 266.414,275.163 289.420 L 275.391 313.150 277.756 316.514 C 285.801 327.955,301.702 327.954,309.744 316.512 C 313.529 311.127,313.366 294.343,309.452 286.312 C 302.531 272.110,282.221 258.404,276.530 264.095 M112.456 293.164 C 112.406 306.737,111.646 310.128,108.398 311.267 C 97.841 314.970,97.454 296.094,107.856 284.809 C 112.460 279.814,112.505 279.895,112.456 293.164 M292.144 284.809 C 300.995 294.411,302.246 311.719,294.089 311.719 C 288.528 311.719,287.500 308.836,287.500 293.243 C 287.500 279.888,287.540 279.815,292.144 284.809 " stroke="none" fill="#000000" fill-rule="evenodd"></path></g></svg>